<?xml version="1.0" standalone="no"?>
<!DOCTYPE svg PUBLIC "-//W3C//DTD SVG 20010904//EN"
 "http://www.w3.org/TR/2001/REC-SVG-20010904/DTD/svg10.dtd">
<svg version="1.0" xmlns="http://www.w3.org/2000/svg"
 width="700.000000pt" height="700.000000pt" viewBox="0 0 700.000000 700.000000"
 preserveAspectRatio="xMidYMid meet">
<metadata>
Created by potrace 1.14, written by Peter Selinger 2001-2017
</metadata>
<g transform="translate(0.000000,700.000000) scale(0.100000,-0.100000)"
fill="#000000" stroke="none">
<path d="M605 6994 c-11 -2 -45 -9 -75 -15 -30 -6 -97 -31 -149 -56 -79 -38
-109 -59 -177 -127 -68 -69 -89 -98 -127 -177 -25 -52 -51 -119 -59 -149 -11
-45 -13 -561 -13 -2975 l0 -2920 23 -75 c40 -125 88 -207 177 -295 88 -89 170
-137 295 -177 l75 -23 2925 0 2925 0 75 23 c125 40 207 88 295 177 89 88 137
170 177 295 l23 75 0 2925 0 2925 -23 75 c-39 125 -88 207 -177 296 -63 63
-99 90 -165 123 -170 84 160 75 -3100 77 -1598 1 -2914 0 -2925 -2z m3480
-1564 c632 -32 1034 -142 1245 -342 51 -47 144 -166 168 -213 60 -121 91 -326
72 -490 -23 -212 -102 -367 -266 -526 -99 -95 -177 -148 -318 -214 -94 -45
-314 -124 -381 -137 -11 -2 41 -7 115 -11 414 -23 695 -116 869 -287 156 -155
216 -350 191 -626 -24 -270 -97 -438 -257 -597 -268 -265 -669 -384 -1402
-417 -119 -5 -769 -10 -1445 -10 l-1229 0 7 193 c22 654 28 983 28 1747 0 764
-6 1093 -28 1748 l-7 192 1219 0 c671 0 1309 -5 1419 -10z"/>
<path d="M2710 4214 l0 -245 593 4 c496 4 616 8 739 24 135 17 149 20 185 49
49 40 70 77 83 144 18 94 -27 184 -105 210 -17 6 -136 21 -265 35 -218 23
-272 25 -732 25 l-498 0 0 -246z"/>
<path d="M2710 2810 l0 -270 498 0 c584 1 919 17 1024 50 70 21 137 65 172
113 25 34 34 143 16 187 -28 68 -120 122 -264 155 -122 28 -290 35 -863 35
l-583 0 0 -270z"/>
</g>
</svg>
