<?xml version="1.0" encoding="UTF-8"?>
<!DOCTYPE svg PUBLIC "-//W3C//DTD SVG 1.1//EN" "http://www.w3.org/Graphics/SVG/1.1/DTD/svg11.dtd">
<!-- Creator: CorelDRAW 2019 (64-Bit) -->
<svg xmlns="http://www.w3.org/2000/svg" xml:space="preserve" width="500px" height="120px" version="1.1" style="shape-rendering:geometricPrecision; text-rendering:geometricPrecision; image-rendering:optimizeQuality; fill-rule:evenodd; clip-rule:evenodd"
viewBox="0 0 500 120"
 xmlns:xlink="http://www.w3.org/1999/xlink"
 xmlns:xodm="http://www.corel.com/coreldraw/odm/2003">
 <defs>
  <style type="text/css">
   <![CDATA[
    .fil1 {fill:#1A1A1A}
    .fil0 {fill:#FFFFEE;fill-rule:nonzero}
   ]]>
  </style>
 </defs>
 <g id="Слой_x0020_1">
  <metadata id="CorelCorpID_0Corel-Layer"/>
  <path class="fil0" d="M65.37 52.31c14.62,0 21.93,4.65 21.93,13.95 0,4.36 -0.99,8.06 -2.98,11.11 -1.99,3.05 -5.54,5.42 -10.67,7.12 -5.14,1.7 -12.25,2.55 -21.36,2.55l-43.29 0c0.51,-12.44 0.77,-24.08 0.77,-34.92 0,-10.84 -0.26,-22.48 -0.77,-34.92l22.61 0 0 0.09 20.49 0c7.95,0 14.22,0.66 18.8,1.98 4.59,1.31 7.83,3.22 9.72,5.72 1.89,2.5 2.84,5.68 2.84,9.52 0,3.91 -1.36,7.39 -4.09,10.44 -2.73,3.05 -7.39,5.5 -14,7.36zm-33.76 -17.51l0 8.95 18.47 0c3.97,0 6.75,-0.35 8.32,-1.06 1.57,-0.71 2.35,-1.99 2.35,-3.85 0,-1.47 -0.81,-2.52 -2.45,-3.12 -1.63,-0.61 -4.38,-0.92 -8.22,-0.92l-18.47 0zm18.47 34.63c3.33,0 5.88,-0.14 7.64,-0.43 1.77,-0.29 3.03,-0.8 3.8,-1.54 0.77,-0.74 1.16,-1.75 1.16,-3.03 0,-1.67 -0.92,-2.87 -2.74,-3.61 -1.83,-0.73 -5.12,-1.1 -9.86,-1.1l-18.47 0 0 9.71 18.47 0zm105.14 -34.92c-0.32,9.3 -0.48,17.7 -0.48,25.21 0,7.37 0.16,15.77 0.48,25.2l-19.72 0 1.06 -33.28 -14.72 33.28 -26.84 0c0.39,-8.46 0.58,-16.87 0.58,-25.2 0,-8.47 -0.19,-16.87 -0.58,-25.21l18.95 0 -0.96 34.15 14.72 -34.15 27.51 0zm49.93 25.59c0.64,-0.06 1.54,-0.09 2.69,-0.09 4.3,0 7.46,0.99 9.48,2.98 2.02,1.99 3.03,4.33 3.03,7.02 0,5.71 -2.6,10.13 -7.79,13.28 -5.2,3.14 -11.87,4.71 -20.01,4.71 -7.12,0 -13.39,-1.22 -18.81,-3.66 -5.42,-2.43 -9.35,-6.54 -11.78,-12.31l4.13 -1.06c5.97,-1.47 10.39,-2.88 13.28,-4.23 1.03,1.99 2.47,3.51 4.33,4.57 1.86,1.06 4.33,1.59 7.41,1.59 3.46,0 6.1,-0.32 7.93,-0.96 1.83,-0.65 2.74,-1.7 2.74,-3.18 0,-1.15 -1.02,-1.96 -3.08,-2.41 -2.05,-0.44 -5,-0.67 -8.85,-0.67l-5.48 0 0 -12.7 3.27 0c3.53,0 6.35,-0.16 8.47,-0.48 2.11,-0.32 3.17,-1.02 3.17,-2.11 0,-1.09 -0.61,-1.96 -1.83,-2.6 -1.22,-0.64 -2.85,-0.96 -4.9,-0.96 -3.34,0 -5.95,0.61 -7.84,1.82 -1.89,1.22 -3.67,3.21 -5.34,5.97 -5.07,-2.12 -10.62,-3.62 -16.64,-4.52 4.93,-10.97 15.2,-16.45 30.78,-16.45 4.55,0 8.72,0.65 12.51,1.97 3.78,1.31 6.76,3.11 8.94,5.39 2.18,2.27 3.27,4.82 3.27,7.64 0,6.16 -4.36,9.98 -13.08,11.45zm82.15 -25.59c-0.32,9.3 -0.48,17.7 -0.48,25.21 0,7.37 0.16,15.77 0.48,25.2l-19.72 0 1.06 -33.28 -14.72 33.28 -26.84 0c0.39,-8.46 0.58,-16.87 0.58,-25.2 0,-8.47 -0.19,-16.87 -0.58,-25.21l18.95 0 -0.96 34.15 14.72 -34.15 27.51 0zm66.09 18.09c-9.62,-0.26 -16.61,-0.42 -20.97,-0.48l0 34.92 -20.39 0 0 -34.92c-4.3,0.06 -11.26,0.22 -20.88,0.48l0 -18.09 62.24 0 0 18.09zm53.01 9.33c2.89,2.31 5.1,4.91 6.64,7.79 1.54,2.89 2.98,6.35 4.33,10.39 1.34,3.53 2.31,5.84 2.88,6.93l-23.18 0c-0.19,-0.45 -0.58,-1.86 -1.16,-4.24 -0.51,-2.37 -1.02,-4.28 -1.54,-5.72 -0.51,-1.44 -1.28,-2.71 -2.3,-3.8 -1.61,-1.73 -3.4,-2.85 -5.39,-3.37 -1.99,-0.51 -4.94,-0.77 -8.85,-0.77l0 17.9 -20.59 0c0.32,-7.31 0.48,-16.07 0.48,-26.27 0,-10.19 -0.16,-18.95 -0.48,-26.26l20.59 0 0 18.86 0.38 0c7.63,-7.63 13.18,-13.92 16.65,-18.86l25.39 0 -22.51 22.42c3.34,1.41 6.22,3.08 8.66,5zm79.37 9.14c0,2.18 0.25,3.72 0.76,4.62 0.52,0.89 1.54,1.54 3.08,1.92l-0.38 9.04c-2.05,0.32 -3.83,0.55 -5.34,0.68 -1.51,0.12 -3.51,0.19 -6.01,0.19 -5.52,0 -9.17,-1.24 -10.97,-3.71 -1.8,-2.46 -2.69,-5.62 -2.69,-9.47l0 -2.4c-1.86,5.25 -4.57,9.17 -8.13,11.73 -3.56,2.57 -8.1,3.85 -13.61,3.85 -6.42,0 -11.24,-1.28 -14.48,-3.85 -3.24,-2.56 -4.86,-6.38 -4.86,-11.45 0,-4.17 1.38,-7.44 4.14,-9.81 2.75,-2.37 7.02,-4.01 12.79,-4.91 -4.87,-3.46 -9.75,-6.47 -14.62,-9.04 3.85,-4.87 8.24,-8.58 13.18,-11.11 4.94,-2.53 10.93,-3.8 17.99,-3.8 9.87,0 17.2,2.13 21.98,6.4 4.78,4.26 7.17,10.82 7.17,19.67l0 11.45zm-27.13 -20.59c-3.27,0 -6.16,0.55 -8.66,1.64 -2.5,1.09 -4.75,2.72 -6.74,4.9 3.85,-0.45 8.66,-0.67 14.44,-0.67 2.37,0 4.04,-0.29 5,-0.87 0.96,-0.57 1.44,-1.31 1.44,-2.21 0,-0.77 -0.48,-1.43 -1.44,-1.97 -0.96,-0.55 -2.31,-0.82 -4.04,-0.82zm-10.1 21.36c3.59,0 6.83,-0.69 9.71,-2.07 2.89,-1.38 4.88,-3.19 5.97,-5.44l0 -2.5c-1.54,0.77 -3.24,1.37 -5.1,1.78 -1.86,0.42 -4.11,0.82 -6.74,1.21l-3.46 0.57c-3.59,0.71 -5.39,1.93 -5.39,3.66 0,1.86 1.67,2.79 5.01,2.79z"/>
  <path class="fil1" d="M58.96 108.37c0.53,-0.81 0.83,-5.74 0.83,-7.08 0,-2.47 -0.24,-4.82 -0.79,-7.09 -1.44,-0.11 -3.65,0.08 -5.09,0.24 -3.09,0.33 -5.18,1.36 -7.77,2.96 -1.38,0.86 -0.92,0.7 -1.79,0.49 -1.54,-0.38 -3.22,-0.38 -4.76,0.01 -0.55,0.14 -0.52,0.27 -0.95,-0.01 -2.83,-1.81 -5.18,-3.11 -8.61,-3.46 -1.5,-0.15 -3.53,-0.32 -5.04,-0.24 -0.56,2.78 -0.79,4.17 -0.79,7.1 0,3 0.23,4.26 0.78,7.07 1.27,0.13 3.81,-0.11 5.12,-0.25 3.29,-0.36 4.98,-1.33 7.72,-2.94 0.29,-0.17 0.55,-0.35 0.82,-0.52 0.44,-0.28 0.5,-0.1 1.03,0.02 1.6,0.37 3.09,0.38 4.7,-0.01 0.56,-0.14 0.55,-0.29 1.01,0.01 2.79,1.8 5.12,3.07 8.51,3.44 1.47,0.16 3.59,0.34 5.07,0.26z"/>
 </g>
</svg>
