<svg xmlns="http://www.w3.org/2000/svg" xml:space="preserve" width="300" height="300" style="shape-rendering:geometricPrecision;text-rendering:geometricPrecision;image-rendering:optimizeQuality;fill-rule:evenodd;clip-rule:evenodd">
      <path d="M146.243 133.237c75.604-15.441 138.576-19.721 140.651-9.56 1.822 8.921-43.91 26.009-106.269 40.496-.135-5.402-2.351-10.712-6.836-14.947-6.25-4.611-15.545-6.573-25.22-4.598-9.734 1.989-17.553 7.494-21.472 14.243-2.078 4.858-2.426 10.186-.728 15.275.116.349.241.692.374 1.031-63.045 11.124-111.815 13.337-113.637 4.416-2.075-10.161 57.532-30.915 133.137-46.356zm-2.673-17.191c15.477-3.161 29.45.403 35.707 8.012-29.319 5.121-36.623 6.695-65.633 14.185 2.316-9.763 14.448-19.036 29.926-22.197z" fill="#fff"/>
      <path d="M147.998 148.079c17.899-4.087 33.217 1.074 36.005 11.637.075.285.124.57.149.855 1.222 14.244-57.199 26.952-60.778 13.386-2.788-10.563 6.725-21.791 24.624-25.878zm21.616 15.79c1.928-.473 3.74-.621 5.11-.481 1.156.119 2.003.444 2.337.956-.503-.09-1.057-.123-1.587-.123-1.764.002-3.796.337-5.591.778-1.796.441-3.758 1.087-5.329 1.904-.471.245-.946.53-1.351.842.067-.61.669-1.29 1.644-1.931 1.157-.761 2.839-1.471 4.767-1.945zm-20.411-13.099c1.882-.463 3.652-.6 4.993-.453 1.131.125 1.96.454 2.29.967-.492-.092-1.034-.128-1.552-.131-1.725-.008-3.709.315-5.462.746-1.754.431-3.669 1.065-5.201 1.873-.458.242-.921.524-1.316.833.063-.609.648-1.285 1.597-1.92 1.128-.753 2.769-1.453 4.651-1.915zm7.354 1.472c-.199.52-.737 1.073-1.522 1.599a7.562 7.562 0 0 1-.403.254c-1.083.395-2.427.801-3.893 1.161-1.886.463-3.621.765-4.899.878-.254.022-.49.037-.705.044-.588-.084-1.082-.229-1.45-.431.123-.286.783-.678 1.803-1.101 1.189-.493 2.868-1.031 4.75-1.493 1.883-.462 3.615-.762 4.893-.875.575-.051 1.06-.064 1.426-.036zm-21.415 19.888c1.928-.473 3.739-.621 5.109-.481 1.157.119 2.004.444 2.337.956-.502-.09-1.056-.123-1.586-.123-1.764.002-3.796.337-5.591.778-1.796.441-3.758 1.087-5.329 1.904-.471.245-.946.53-1.351.842.067-.61.669-1.291 1.644-1.931 1.157-.761 2.839-1.471 4.767-1.945zm7.514 1.433c-.206.522-.76 1.079-1.565 1.61-.131.086-.269.172-.414.257-1.11.401-2.487.815-3.988 1.184-1.932.474-3.708.786-5.016.906-.26.024-.501.04-.721.049-.602-.082-1.106-.224-1.481-.424.127-.287.805-.683 1.849-1.112 1.22-.501 2.941-1.048 4.868-1.522 1.928-.474 3.701-.784 5.009-.904.589-.054 1.085-.069 1.459-.044zm34.472-8.261c-.206.523-.759 1.079-1.565 1.61-.131.086-.269.172-.414.257-1.11.401-2.487.815-3.988 1.184-1.932.474-3.708.786-5.016.906-.26.024-.501.04-.722.049-.6-.082-1.104-.224-1.48-.424.127-.287.805-.683 1.85-1.112 1.219-.501 2.94-1.048 4.868-1.522 1.927-.473 3.7-.784 5.008-.904.59-.054 1.086-.069 1.459-.044z" fill="#fff"/>
</svg>