<svg xmlns="http://www.w3.org/2000/svg" xml:space="preserve" width="300" height="300" style="shape-rendering:geometricPrecision;text-rendering:geometricPrecision;image-rendering:optimizeQuality;fill-rule:evenodd;clip-rule:evenodd">
  <path d="M67 190.911c4.74-4.484 12.302-7.215 14.219-13.452 1.514-4.93-3.776-9.598-5.664-14.398 3.876 3.403 6.477 9.961 11.628 10.206 6.517.31 11.649-5.881 17.473-8.822-4.74 4.484-12.302 7.215-14.219 13.452-1.514 4.93 3.776 9.599 5.664 14.398-3.876-3.402-6.477-9.961-11.628-10.205-6.517-.311-11.649 5.881-17.473 8.821zm10.147-30.959c2.672-2.53 6.938-4.071 8.019-7.589.854-2.781-2.129-5.413-3.195-8.121 2.187 1.919 3.654 5.619 6.56 5.757 3.676.175 6.57-3.318 9.855-4.976-2.673 2.529-6.939 4.07-8.02 7.588-.854 2.78 2.13 5.414 3.195 8.121-2.186-1.919-3.654-5.619-6.559-5.757-3.676-.174-6.571 3.318-9.855 4.977zm70.317-36.539c2.672-2.529 6.938-4.07 8.02-7.588.853-2.78-2.131-5.414-3.196-8.121 2.187 1.919 3.654 5.619 6.559 5.757 3.676.174 6.572-3.318 9.857-4.976-2.674 2.529-6.94 4.069-8.02 7.588-.855 2.781 2.129 5.413 3.194 8.121-2.186-1.919-3.654-5.619-6.559-5.757-3.676-.175-6.57 3.317-9.855 4.976zm24.274 35.03c1.818-1.72 4.718-2.767 5.452-5.159.581-1.89-1.447-3.68-2.172-5.521 1.487 1.305 2.484 3.82 4.46 3.914 2.499.119 4.467-2.256 6.7-3.383-1.818 1.72-4.718 2.767-5.452 5.159-.582 1.89 1.448 3.68 2.171 5.521-1.486-1.305-2.483-3.82-4.459-3.914-2.499-.119-4.466 2.256-6.7 3.383zm31.562-36.195c1.295-1.225 3.361-1.971 3.884-3.675.414-1.346-1.031-2.621-1.547-3.932 1.058.929 1.769 2.721 3.176 2.788 1.78.084 3.181-1.607 4.772-2.41-1.294 1.224-3.36 1.971-3.884 3.674-.413 1.347 1.032 2.622 1.548 3.932-1.059-.928-1.769-2.72-3.176-2.787-1.78-.084-3.182 1.607-4.773 2.41zm23.567-3.363c.847-.217 1.91-.043 2.541-.649.498-.478.183-1.369.275-2.054.232.65.11 1.588.696 1.953.743.461 1.747.07 2.621.106-.847.216-1.911.043-2.541.648-.499.478-.184 1.37-.276 2.055-.232-.652-.109-1.589-.696-1.953-.743-.461-1.747-.071-2.62-.106zm-120.713 15.561c-.577-.823-.398-1.946.403-2.508.8-.562 1.917-.351 2.496.472.577.822.397 1.945-.403 2.507s-1.917.352-2.496-.471zm66.07 32.03c-.578-.823-1.695-1.034-2.496-.472-.8.563-.98 1.686-.402 2.508.578.823 1.695 1.034 2.496.471.8-.562.98-1.684.402-2.507zm-33.772-45.044c.66.939.454 2.22-.46 2.862-.912.642-2.188.401-2.848-.538-.659-.939-.453-2.22.459-2.862.913-.642 2.188-.401 2.849.538zm6.014 26.762c.976 1.389 2.863 1.746 4.215.796 1.351-.95 1.655-2.846.679-4.235-.977-1.39-2.864-1.745-4.215-.795-1.351.949-1.656 2.844-.679 4.234zm61.516-20.463c.648.924 1.903 1.161 2.801.53.898-.631 1.101-1.892.451-2.815-.649-.923-1.903-1.161-2.801-.529-.898.631-1.1 1.891-.451 2.814zm-40.294 11.594c.976 1.389 2.863 1.745 4.215.795 1.35-.949 1.655-2.846.678-4.235-.977-1.389-2.863-1.745-4.215-.795-1.351.95-1.655 2.846-.678 4.235zm60.429-6.461c.365.518 1.069.651 1.572.297.505-.355.618-1.062.254-1.58-.364-.519-1.069-.652-1.573-.298-.504.355-.617 1.062-.253 1.581zm-20.536 10.644c.395.562 1.16.706 1.706.322.548-.384.671-1.152.276-1.715-.396-.562-1.16-.707-1.707-.322-.547.385-.67 1.153-.275 1.715zm-11.319 8.991c.529.753 1.551.945 2.283.431.732-.515.897-1.541.368-2.294-.53-.752-1.551-.946-2.283-.431-.732.515-.897 1.542-.368 2.294zm-8.124-10.626c.251.358.737.449 1.085.205.348-.245.426-.733.175-1.091s-.738-.449-1.085-.205c-.348.245-.427.733-.175 1.091zm28.553-15.16c.251.357.737.45 1.085.204.348-.244.426-.732.174-1.09-.25-.358-.737-.449-1.085-.205-.347.245-.426.733-.174 1.091zm-90.399 21.677c.681.97 1.998 1.218 2.941.555.942-.662 1.155-1.986.473-2.955-.681-.97-1.998-1.218-2.941-.555-.943.663-1.155 1.986-.473 2.955z" style="fill:#fff"/>
</svg>
