<svg xmlns="http://www.w3.org/2000/svg" xml:space="preserve" width="300" height="300">
  <path d="M205.2 135.9c.5 3.1-.5 6.9 1.4 9.4 1.5 2 4.9 1.2 7.3 1.8-2.4.6-5.8-.2-7.3 1.7-2 2.5-.9 6.3-1.4 9.4-.4-3 .6-6.9-1.3-9.4-1.6-2-4.9-1.1-7.3-1.7 2.4-.6 5.7.2 7.3-1.8 2-2.5.9-6.3 1.3-9.4zm-30.4 14.3c-.4 3.1.6 6.9-1.4 9.4-1.5 2-4.8 1.2-7.3 1.7 2.5.6 5.8-.2 7.3 1.8 2 2.5 1 6.3 1.4 9.4.5-3.1-.6-6.9 1.4-9.4 1.5-2 4.9-1.2 7.3-1.8-2.4-.5-5.8.3-7.3-1.7-2-2.5-1-6.3-1.4-9.4zM171 59.6c-.3 2.3.4 5-1 6.7-1 1.4-3.4.9-5.2 1.3 1.8.4 4.1-.2 5.2 1.3 1.4 1.8.7 4.4 1 6.7.4-2.3-.4-5 1-6.7 1.1-1.5 3.5-.9 5.2-1.3-1.7-.4-4 .1-5.2-1.3-1.4-1.8-.6-4.4-1-6.7zm43.7 89c.3 1.7-.3 3.9.8 5.3.8 1 2.7.6 4.1 1-1.4.3-3.3-.1-4.1 1-1.1 1.4-.5 3.5-.8 5.3-.3-1.8.3-4-.8-5.3-.8-1.1-2.7-.7-4-1 1.3-.4 3.2 0 4-1 1.1-1.4.5-3.6.8-5.3zm-15.2-90.1c.2 1.2-.2 2.8.6 3.8.6.8 2 .4 3 .7-1 .2-2.4-.1-3 .7-.8 1-.4 2.5-.6 3.8-.2-1.3.3-2.8-.5-3.8-.6-.8-2-.5-3-.7 1-.3 2.4 0 3-.7.8-1 .3-2.6.5-3.8zm39.7 149c-.3-2 .4-4.6-1-6.2-1-1.4-3.2-.8-4.9-1.2 1.7-.4 4 .1 5-1.2 1.3-1.7.6-4.3.9-6.4.3 2.1-.4 4.7 1 6.4 1 1.3 3.2.8 4.8 1.2-1.6.4-3.9-.2-4.9 1.2-1.3 1.6-.6 4.2-1 6.3zm-73.9-44.7c-.2 1.8.4 4-.7 5.4-.9 1-2.8.6-4.1 1 1.3.3 3.2-.2 4 1 1.2 1.4.6 3.5.8 5.3.3-1.8-.3-4 .8-5.4.9-1 2.8-.6 4.1-1-1.3-.3-3.2.2-4-1-1.2-1.4-.6-3.5-.9-5.3zm-1-94.1c-.2 1.2.2 2.8-.6 3.8-.6.8-2 .4-3 .7 1 .2 2.4-.1 3 .7.8 1 .4 2.5.6 3.8.1-1.3-.3-2.8.5-3.8.6-.8 2-.5 3-.7-1-.3-2.4 0-3-.7-.8-1-.4-2.6-.5-3.8zM64 114.3c-.3-1.7.3-3.9-.8-5.3-.9-1-2.7-.6-4.1-1 1.4-.3 3.2.2 4.1-1 1.1-1.4.5-3.5.8-5.3.2 1.8-.3 4 .8 5.3.8 1.2 2.7.7 4 1-1.3.4-3.2 0-4 1-1.1 1.4-.6 3.6-.8 5.3zm61.4-14.7c-.2-1.7.3-3.9-.7-5.3-1-1-2.8-.6-4.2-1 1.4-.3 3.3.2 4.2-1 1-1.4.5-3.5.7-5.3.3 1.8-.3 4 .8 5.3.9 1.2 2.8.7 4.1 1-1.3.4-3.2 0-4.1 1-1 1.4-.5 3.6-.8 5.3zm91.3 67.6c.5 0 1 .4 1 .9s-.5.8-1 .8a.9.9 0 0 1-.8-.8c0-.5.4-.9.8-.9zM201 71.8c.3 0 .6.3.6.6 0 .4-.3.6-.6.6a.6.6 0 0 1-.6-.6c0-.3.2-.6.6-.6zm-10.8 169.7c-.9 0-1.6-.7-1.6-1.5s.7-1.5 1.6-1.5c.8 0 1.5.7 1.5 1.5 0 .9-.7 1.5-1.5 1.5zm54.8-30.3c-.8 0-1.5.7-1.5 1.5s.6 1.5 1.5 1.5 1.6-.6 1.6-1.5c0-.8-.7-1.5-1.6-1.5zM162.8 82c-.3 0-.6.3-.6.6 0 .4.3.6.6.6.4 0 .6-.2.6-.6 0-.3-.2-.6-.6-.6zm30.2 34.4c.6 0 1-.5 1-1 0-.7-.4-1.1-1-1.1a1 1 0 0 0-1.1 1c0 .6.5 1 1 1zm0 0c.6 0 1-.5 1-1 0-.7-.4-1.1-1-1.1a1 1 0 0 0-1.1 1c0 .6.5 1 1 1zm13.8-8.3c.6 0 1-.5 1-1 0-.6-.4-1-1-1a1 1 0 0 0-1.1 1c0 .5.5 1 1 1zM45 122.9c.8-.4 1.1-1.3.8-2-.4-.7-1.3-1-2-.7-.8.4-1.1 1.3-.8 2 .4.7 1.3 1 2 .7zm209.3-41.3c1.4 0 2.6 1.1 2.6 2.5s-1.2 2.6-2.6 2.6a2.6 2.6 0 0 1-2.6-2.6c0-1.4 1.1-2.5 2.6-2.5zm-102.5 99.3c1.4 0 2.6-1.1 2.6-2.5s-1.2-2.6-2.6-2.6a2.6 2.6 0 0 0-2.6 2.6c0 1.4 1.1 2.5 2.6 2.5zm2.7-99.3c1 0 2-.8 2-1.8s-1-1.9-2-1.9-1.8.9-1.8 1.9c0 1 .8 1.8 1.8 1.8zm99.8 0c1.4 0 2.6 1.1 2.6 2.5s-1.2 2.6-2.6 2.6a2.6 2.6 0 0 1-2.6-2.6c0-1.4 1.1-2.5 2.6-2.5zm-102.5 99.3c1.4 0 2.6-1.1 2.6-2.5s-1.2-2.6-2.6-2.6a2.6 2.6 0 0 0-2.6 2.6c0 1.4 1.1 2.5 2.6 2.5zm2.7-99.3c1 0 2-.8 2-1.8s-1-1.9-2-1.9-1.8.9-1.8 1.9c0 1 .8 1.8 1.8 1.8zm42.4 131c1 0 1.8.8 1.8 1.7 0 1-.8 1.8-1.8 1.8s-1.8-.8-1.8-1.8.8-1.7 1.8-1.7zm21.6 9c1.5 0 2.6-1.2 2.6-2.6 0-1.4-1.1-2.5-2.6-2.5a2.6 2.6 0 0 0-2.6 2.5c0 1.4 1.2 2.6 2.6 2.6zm4.3-19.2c1.4 0 2.6-1.1 2.6-2.5 0-1.5-1.2-2.6-2.6-2.6a2.6 2.6 0 0 0-2.7 2.5c0 1.5 1.2 2.6 2.7 2.6zM246 189c.8 0 1.4-.7 1.4-1.4 0-.8-.6-1.4-1.4-1.4-.8 0-1.4.6-1.4 1.4 0 .7.6 1.4 1.4 1.4zm-11.4.4c.4 0 .7-.3.7-.7 0-.3-.3-.6-.7-.6-.4 0-.7.3-.7.6 0 .4.3.7.7.7zm-25.9 46.3c1 0 1.8-.8 1.9-1.7 0-1-.9-1.8-1.9-1.8-1 0-1.8.8-1.8 1.8s.8 1.7 1.8 1.7zM168.4 89.8c1 0 1.9-.8 1.9-1.8s-.8-1.8-1.9-1.8c-1 0-1.8.8-1.8 1.8s.8 1.8 1.8 1.8zM72.1 88a2.6 2.6 0 0 0 1.3-3.4 2.6 2.6 0 0 0-3.5-1.2 2.6 2.6 0 0 0-1.2 3.4A2.6 2.6 0 0 0 72 88zm0 0a2.6 2.6 0 0 0 1.3-3.4 2.6 2.6 0 0 0-3.5-1.2 2.6 2.6 0 0 0-1.2 3.4A2.6 2.6 0 0 0 72 88zm95.6 27.2a3 3 0 0 0 3.1-3 3 3 0 0 0-3-3 3 3 0 0 0-3.2 3 3 3 0 0 0 3.1 3zM98 139.5a3 3 0 0 1 3 3 3 3 0 0 1-3 2.9 3 3 0 0 1-3-3 3 3 0 0 1 3-2.9zM81 126.1a3 3 0 0 0 1.5-4 3 3 0 0 0-4-1.3 3 3 0 0 0-1.4 4 3 3 0 0 0 4 1.3zM98 139.5a3 3 0 0 1 3 3 3 3 0 0 1-3 2.9 3 3 0 0 1-3-3 3 3 0 0 1 3-2.9zM81 126.1a3 3 0 0 0 1.5-4 3 3 0 0 0-4-1.3 3 3 0 0 0-1.4 4 3 3 0 0 0 4 1.3zm36.2 25a3 3 0 0 1 3 3 3 3 0 0 1-3 2.8 3 3 0 0 1-3-2.9 3 3 0 0 1 3-2.9zm-23.7-43.7a3 3 0 0 0 1.5-4 3 3 0 0 0-4-1.3 3 3 0 0 0-1.4 4 3 3 0 0 0 4 1.3z" style="fill:#fff"/>
</svg>
